<?xml version="1.0" encoding="utf-8"?>
<!-- Generator: Adobe Illustrator 16.0.0, SVG Export Plug-In . SVG Version: 6.00 Build 0)  -->
<!DOCTYPE svg PUBLIC "-//W3C//DTD SVG 1.1//EN" "http://www.w3.org/Graphics/SVG/1.1/DTD/svg11.dtd">
<svg version="1.1" id="Layer_1" xmlns="http://www.w3.org/2000/svg" xmlns:xlink="http://www.w3.org/1999/xlink" x="0px" y="0px"
	 width="512px" height="512px" viewBox="0 0 512 512" enable-background="new 0 0 512 512" xml:space="preserve">
<path d="M359.503,1.824c-19.361,3.469-38.854,12.152-54.476,24.032c-11.488,8.814-111.225,109.088-114.699,115.362l-2.54,4.541
	l4.54-0.8c18.161-3.202,39.654-2.137,60.484,3.202l10.549,2.67l40.191-39.92c35.517-35.387,41.128-40.459,48.87-44.064
	c26.839-12.418,54.346-8.009,76.105,12.55c17.226,16.29,23.098,29.377,23.098,51.273c0,15.621-2.403,24.701-9.749,35.918
	c-2.137,3.339-26.838,28.976-55.014,57.016c-48.065,47.668-51.676,51.007-60.484,55.009c-16.159,7.21-30.041,8.145-47.402,3.338
	c-10.015-2.67-15.757-5.877-24.968-13.62c-13.087-10.814-19.895-13.087-31.378-10.685c-9.88,2.138-20.161,12.419-22.299,22.299
	c-2.539,12.283,0.8,21.097,12.283,31.911c25.501,24.169,63.693,36.718,99.209,32.444c23.499-2.806,44.998-11.483,63.289-25.234
	c12.962-9.874,108.032-106.011,114.84-116.156c8.145-12.152,15.49-28.709,18.96-42.329c4.138-16.557,4.138-45.662-0.136-61.289
	c-11.348-42.329-45.266-78.645-86.654-92.934C403.964,0.09,378.86-1.65,359.503,1.824z"/>
<path d="M197.538,168.062c-18.291,2.534-38.724,10.549-55.411,21.766c-9.749,6.541-106.016,102.008-116.167,115.096
	c-29.639,38.719-34.314,90.66-11.88,134.854c16.426,32.313,49.402,59.017,84.386,68.363c17.895,4.806,44.597,5.073,62.225,0.668
	c13.62-3.474,30.176-10.814,42.328-18.959c15.491-10.413,123.644-119.637,120.974-122.306c-0.267-0.267-6.008,0.136-12.82,0.935
	c-14.687,1.734-35.114,0-51.273-4.273l-10.549-2.937l-39.523,39.388c-22.831,22.701-42.193,40.856-45.667,42.862
	c-11.217,6.274-19.629,8.281-34.048,8.145c-21.363-0.267-34.581-6.274-50.605-23.233c-20.428-21.765-24.968-49.136-12.549-76.105
	c3.74-7.878,9.211-13.887,55.547-60.353c44.728-44.869,52.736-52.345,60.614-56.482c16.823-8.944,35.386-10.548,52.34-4.671
	c10.146,3.469,14.419,5.872,23.098,13.218c13.082,10.814,19.895,13.088,31.378,10.685c9.88-2.137,20.162-12.419,22.299-22.299
	c2.539-12.282-0.8-21.096-12.283-31.911c-8.548-8.145-23.233-17.894-34.048-22.7C247.077,169.531,217.7,165.257,197.538,168.062z"/>
</svg>
