<?xml version="1.0" encoding="utf-8"?>
<!-- Generator: Adobe Illustrator 16.0.0, SVG Export Plug-In . SVG Version: 6.00 Build 0)  -->
<!DOCTYPE svg PUBLIC "-//W3C//DTD SVG 1.1//EN" "http://www.w3.org/Graphics/SVG/1.1/DTD/svg11.dtd">
<svg version="1.1" id="Layer_1" xmlns="http://www.w3.org/2000/svg" xmlns:xlink="http://www.w3.org/1999/xlink" x="0px" y="0px"
	 width="512px" height="512px" viewBox="0 0 512 512" enable-background="new 0 0 512 512" xml:space="preserve">
<g>
	<path d="M32.852,91.742h350.416c18.136,0,32.853-14.702,32.853-32.851c0-18.15-14.717-32.851-32.853-32.851H32.852
		C14.713,26.04,0,40.742,0,58.891C0,77.039,14.713,91.742,32.852,91.742z"/>
	<path d="M479.147,223.149H32.852C14.713,223.149,0,237.852,0,256c0,18.148,14.713,32.852,32.853,32.852h446.294
		C497.283,288.852,512,274.149,512,256S497.284,223.149,479.147,223.149z"/>
	<path d="M233.607,420.259H32.852C14.713,420.259,0,434.961,0,453.109s14.713,32.852,32.853,32.852h200.755
		c18.149,0,32.852-14.702,32.852-32.852S251.755,420.259,233.607,420.259z"/>
</g>
</svg>
